HIERARCHY
ROOT hip
{
  OFFSET 0 0 0
  CHANNELS 6 Xposition Yposition Zposition Zrotation Yrotation Xrotation
  JOINT abdomen
  {
    OFFSET 0 20.6881 -0.73152
    CHANNELS 3 Zrotation Xrotation Yrotation
    JOINT chest
    {
      OFFSET 0 11.7043 -0.48768
      CHANNELS 3 Zrotation Xrotation Yrotation
      JOINT neck
      {
        OFFSET 0 22.1894 -2.19456
        CHANNELS 3 Zrotation Xrotation Yrotation
        JOINT head
        {
          OFFSET -0.24384 7.07133 1.2192
          CHANNELS 3 Zrotation Xrotation Yrotation
          JOINT leftEye
          {
            OFFSET 4.14528 8.04674 8.04672
            CHANNELS 3 Zrotation Xrotation Yrotation
            End Site
            {
              OFFSET 1 0 0
            }
          }
          JOINT rightEye
          {
            OFFSET -3.6576 8.04674 8.04672
            CHANNELS 3 Zrotation Xrotation Yrotation
            End Site
            {
              OFFSET 1 0 0
            }
          }
        }
      }
      JOINT rCollar
      {
        OFFSET -2.68224 19.2634 -4.8768
        CHANNELS 3 Zrotation Xrotation Yrotation
        JOINT rShldr
        {
          OFFSET -8.77824 -1.95073 1.46304
          CHANNELS 3 Zrotation Xrotation Yrotation
          JOINT rForeArm
          {
            OFFSET -28.1742 -1.7115 0.48768
            CHANNELS 3 Zrotation Xrotation Yrotation
            JOINT rHand
            {
              OFFSET -22.5879 0.773209 7.07136
              CHANNELS 3 Zrotation Xrotation Yrotation
              JOINT rThumb1
              {
                OFFSET -1.2192 -0.487915 3.41376
                CHANNELS 3 Zrotation Xrotation Yrotation
                JOINT rThumb2
                {
                  OFFSET -3.37035 -0.52449 3.41376
                  CHANNELS 3 Zrotation Xrotation Yrotation
                  End Site
                  {
                    OFFSET -1.78271 -1.18214 1.43049
                  }
                }
              }
              JOINT rIndex1
              {
                OFFSET -7.75947 0.938293 5.60832
                CHANNELS 3 Zrotation Xrotation Yrotation
                JOINT rIndex2
                {
                  OFFSET -2.54057 -0.884171 1.56538
                  CHANNELS 3 Zrotation Xrotation Yrotation
                  End Site
                  {
                    OFFSET -1.62519 -0.234802 1.16502
                  }
                }
              }
              JOINT rMid1
              {
                OFFSET -8.24714 1.18213 3.41376
                CHANNELS 3 Zrotation Xrotation Yrotation
                JOINT rMid2
                {
                  OFFSET -3.10165 -0.590103 1.0647
                  CHANNELS 3 Zrotation Xrotation Yrotation
                  End Site
                  {
                    OFFSET -2.48547 -0.328903 0.83742
                  }
                }
              }
              JOINT rRing1
              {
                OFFSET -8.82822 0.546677 1.51678
                CHANNELS 3 Zrotation Xrotation Yrotation
                JOINT rRing2
                {
                  OFFSET -2.60934 -0.819778 -0.0198488
                  CHANNELS 3 Zrotation Xrotation Yrotation
                  End Site
                  {
                    OFFSET -2.33842 -0.294052 0.168128
                  }
                }
              }
              JOINT rPinky1
              {
                OFFSET -8.27202 -0.0477905 -0.4584
                CHANNELS 3 Zrotation Xrotation Yrotation
                JOINT rPinky2
                {
                  OFFSET -1.82734 -0.647385 -0.700984
                  CHANNELS 3 Zrotation Xrotation Yrotation
                  End Site
                  {
                    OFFSET -1.69225 -0.51767 -0.607171
                  }
                }
              }
            }
          }
        }
      }
      JOINT lCollar
      {
        OFFSET 2.68224 19.2634 -4.8768
        CHANNELS 3 Zrotation Xrotation Yrotation
        JOINT lShldr
        {
          OFFSET 8.77824 -1.95073 1.46304
          CHANNELS 3 Zrotation Xrotation Yrotation
          JOINT lForeArm
          {
            OFFSET 28.1742 -1.7115 0.48768
            CHANNELS 3 Zrotation Xrotation Yrotation
            JOINT lHand
            {
              OFFSET 22.5879 0.773209 7.07136
              CHANNELS 3 Zrotation Xrotation Yrotation
              JOINT lThumb1
              {
                OFFSET 1.2192 -0.487915 3.41376
                CHANNELS 3 Zrotation Xrotation Yrotation
                JOINT lThumb2
                {
                  OFFSET 3.37035 -0.52449 3.41376
                  CHANNELS 3 Zrotation Xrotation Yrotation
                  End Site
                  {
                    OFFSET 1.78271 -1.18214 1.43049
                  }
                }
              }
              JOINT lIndex1
              {
                OFFSET 7.75947 0.938293 5.60832
                CHANNELS 3 Zrotation Xrotation Yrotation
                JOINT lIndex2
                {
                  OFFSET 2.54057 -0.884171 1.56538
                  CHANNELS 3 Zrotation Xrotation Yrotation
                  End Site
                  {
                    OFFSET 1.62519 -0.234802 1.16502
                  }
                }
              }
              JOINT lMid1
              {
                OFFSET 8.24714 1.18213 3.41376
                CHANNELS 3 Zrotation Xrotation Yrotation
                JOINT lMid2
                {
                  OFFSET 3.10165 -0.590103 1.0647
                  CHANNELS 3 Zrotation Xrotation Yrotation
                  End Site
                  {
                    OFFSET 2.48547 -0.328903 0.83742
                  }
                }
              }
              JOINT lRing1
              {
                OFFSET 8.82822 0.546677 1.51678
                CHANNELS 3 Zrotation Xrotation Yrotation
                JOINT lRing2
                {
                  OFFSET 2.60934 -0.819778 -0.0198488
                  CHANNELS 3 Zrotation Xrotation Yrotation
                  End Site
                  {
                    OFFSET 2.33842 -0.294052 0.168128
                  }
                }
              }
              JOINT lPinky1
              {
                OFFSET 8.27202 -0.0477905 -0.4584
                CHANNELS 3 Zrotation Xrotation Yrotation
                JOINT lPinky2
                {
                  OFFSET 1.82734 -0.647385 -0.700984
                  CHANNELS 3 Zrotation Xrotation Yrotation
                  End Site
                  {
                    OFFSET 1.69225 -0.51767 -0.607171
                  }
                }
              }
            }
          }
        }
      }
    }
  }
  JOINT rButtock
  {
    OFFSET -8.77824 4.35084 1.2192
    CHANNELS 3 Zrotation Xrotation Yrotation
    JOINT rThigh
    {
      OFFSET 0 -1.70687 -2.19456
      CHANNELS 3 Zrotation Xrotation Yrotation
      JOINT rShin
      {
        OFFSET 0 -36.8199 0.73152
        CHANNELS 3 Zrotation Xrotation Yrotation
        JOINT rFoot
        {
          OFFSET 0.73152 -45.1104 -5.12064
          CHANNELS 3 Zrotation Xrotation Yrotation
          End Site
          {
            OFFSET -1.1221 -3.69964 12.103
          }
        }
      }
    }
  }
  JOINT lButtock
  {
    OFFSET 8.77824 4.35084 1.2192
    CHANNELS 3 Zrotation Xrotation Yrotation
    JOINT lThigh
    {
      OFFSET 0 -1.70687 -2.19456
      CHANNELS 3 Zrotation Xrotation Yrotation
      JOINT lShin
      {
        OFFSET 0 -36.8199 0.73152
        CHANNELS 3 Zrotation Xrotation Yrotation
        JOINT lFoot
        {
          OFFSET -0.73152 -45.1104 -5.12064
          CHANNELS 3 Zrotation Xrotation Yrotation
          End Site
          {
            OFFSET 1.1221 -3.69964 12.103
          }
        }
      }
    }
  }
}
MOTION
Frames:	4
Frame Time:	0.00833333
13.2935 85.7852 24.2134 -111.089 -79.9181 118.514 13.0996 -2.60199 2.76283 -0.0917037 1.14291 0.582192 -6.63859 0.234784 -4.39016 9.0396 -1.29269 -7.16285 -0.0 0.0 0.0 -0.0 0.0 0.0 -7.46616e-14 8.52153e-13 1.95803e-14 69.9757 14.014 7.59082 -14.5264 -7.38679 26.6198 -0.0123266 3.12687 0.439922 1.34328e-10 -1.13242e-09 2.0675e-09 2.42097e-10 -1.95689e-09 3.5735e-09 1.34328e-10 -1.13242e-09 2.06749e-09 7.73091 5.47488 0.417314 1.34326e-10 -1.13243e-09 2.0675e-09 2.90554 0.965183 0.102902 1.34332e-10 -1.13243e-09 2.06751e-09 10.2786 0.731801 0.0259123 1.34321e-10 -1.13243e-09 2.06752e-09 2.22167 -0.733487 -0.20892 -7.46803e-14 8.52153e-13 1.94436e-14 -91.6606 8.08698 9.59016 8.73354 -3.40638 -15.4472 2.92518 42.7489 -7.46454 1.76614e-09 -5.39581e-10 -2.33602e-11 3.0406e-09 -9.40702e-10 -1.05195e-10 1.76613e-09 -5.39577e-10 -2.33528e-11 -7.73091 5.47488 -0.417314 1.76614e-09 -5.39579e-10 -2.33612e-11 -2.90554 0.965183 -0.102902 1.76613e-09 -5.39577e-10 -2.33613e-11 -10.2786 0.731801 -0.0259123 1.76614e-09 -5.3958e-10 -2.33785e-11 -2.22167 -0.733487 0.20892 -2.03217e-16 0.0 -3.88251e-19 14.3408 -3.61632 6.1989 -0.0250827 12.0824 0.215467 -1.10468 -8.59824 -3.00034 2.03217e-16 0.0 3.88251e-19 20.1714 -37.943 8.6272 0.167362 29.3483 -0.340252 1.23645 -0.813852 7.99283
12.6317 85.7401 24.1984 -111.048 -79.8612 118.718 12.9225 -2.85325 2.9629 -0.282455 1.21931 0.631838 -6.69439 0.376226 -4.37143 8.97829 -1.28472 -7.13047 -0.0 0.0 0.0 -0.0 0.0 0.0 9.77714e-14 4.15278e-13 -4.81641e-14 69.4901 14.5606 8.18167 -14.803 -7.62132 27.1835 -0.00943846 2.75557 0.38758 -1.00465e-09 -1.05023e-09 -8.56799e-10 -1.73873e-09 -1.82205e-09 -1.47525e-09 -1.00465e-09 -1.05023e-09 -8.56812e-10 7.73091 5.47488 0.417314 -1.00465e-09 -1.05023e-09 -8.56804e-10 2.90554 0.965183 0.102902 -1.00464e-09 -1.05023e-09 -8.56796e-10 10.2786 0.731801 0.0259123 -1.00466e-09 -1.05023e-09 -8.56781e-10 2.22167 -0.733487 -0.20892 9.77956e-14 4.15284e-13 -4.83039e-14 -91.6343 8.70768 9.47038 8.82618 -3.45787 -15.6181 2.85546 42.3539 -7.36141 -2.57018e-09 5.36353e-10 7.67381e-11 -4.42804e-09 9.34488e-10 2.14405e-10 -2.57018e-09 5.36359e-10 7.67426e-11 -7.73091 5.47488 -0.417314 -2.57018e-09 5.36359e-10 7.67382e-11 -2.90554 0.965183 -0.102902 -2.57019e-09 5.3636e-10 7.67353e-11 -10.2786 0.731801 -0.0259123 -2.57018e-09 5.3636e-10 7.67213e-11 -2.22167 -0.733487 0.20892 -2.03217e-16 0.0 -3.88251e-19 14.2189 -3.25229 6.2014 -0.0298797 11.7806 0.181725 -1.11747 -8.78856 -2.99664 2.03217e-16 0.0 3.88251e-19 19.5465 -37.6298 7.09345 0.130396 26.0229 -0.242677 1.20811 -0.409643 8.77213
11.9606 85.6759 24.1828 -111.158 -79.7956 119.059 12.7559 -3.08037 3.16361 -0.463676 1.30253 0.683423 -6.74592 0.509928 -4.34877 8.91374 -1.28374 -7.08977 -0.0 0.0 0.0 -0.0 0.0 0.0 2.0394e-13 -4.97153e-13 -7.42461e-14 68.9923 15.0937 8.79333 -15.0643 -7.84608 27.7211 -0.00695102 2.3798 0.334653 -1.65972e-09 -9.76379e-10 -2.55534e-09 -2.87812e-09 -1.69861e-09 -4.40769e-09 -1.65972e-09 -9.76374e-10 -2.55536e-09 7.73091 5.47488 0.417314 -1.65972e-09 -9.76377e-10 -2.55535e-09 2.90554 0.965183 0.102902 -1.65972e-09 -9.76379e-10 -2.55534e-09 10.2786 0.731801 0.0259123 -1.65973e-09 -9.76379e-10 -2.55532e-09 2.22167 -0.733487 -0.20892 2.0398e-13 -4.97143e-13 -7.43952e-14 -91.5835 9.27583 9.3305 8.92478 -3.51314 -15.8001 2.77865 41.9113 -7.24717 -5.01796e-09 1.14791e-09 9.80438e-11 -8.64446e-09 2.001e-09 3.34585e-10 -5.01795e-09 1.14791e-09 9.8047e-11 -7.73091 5.47488 -0.417314 -5.01795e-09 1.14792e-09 9.80438e-11 -2.90554 0.965183 -0.102902 -5.01796e-09 1.14792e-09 9.80398e-11 -10.2786 0.731801 -0.0259123 -5.01796e-09 1.14792e-09 9.80279e-11 -2.22167 -0.733487 0.20892 -2.03217e-16 0.0 -3.88251e-19 14.0917 -2.90914 6.1881 -0.0349181 11.5548 0.151044 -1.11771 -8.99706 -2.9373 2.03217e-16 0.0 3.88251e-19 18.9775 -37.3513 5.52817 0.104259 22.9653 -0.157323 1.19921 -0.268038 9.52327
11.2828 85.5968 24.1685 -111.413 -79.7274 119.53 12.5954 -3.28705 3.37467 -0.633996 1.39942 0.739988 -6.79326 0.639509 -4.32187 8.84606 -1.29342 -7.04033 -0.0 0.0 0.0 -0.0 0.0 0.0 2.14253e-13 -2.51821e-12 -3.01644e-14 68.4783 15.6224 9.42666 -15.3129 -8.06377 28.2358 -0.00469453 1.97345 0.277464 -1.57003e-09 -9.12966e-10 -2.38687e-09 -2.7225e-09 -1.58865e-09 -4.11654e-09 -1.57003e-09 -9.12961e-10 -2.38689e-09 7.73091 5.47488 0.417314 -1.57003e-09 -9.12963e-10 -2.38688e-09 2.90554 0.965183 0.102902 -1.57003e-09 -9.12965e-10 -2.38687e-09 10.2786 0.731801 0.0259123 -1.57004e-09 -9.12965e-10 -2.38686e-09 2.22167 -0.733487 -0.20892 2.1426e-13 -2.5182e-12 -3.0336e-14 -91.5106 9.79922 9.17565 9.03619 -3.57615 -16.0058 2.69019 41.3898 -7.11451 -4.55492e-09 1.04305e-09 -3.31916e-11 -7.84884e-09 1.82037e-09 9.4036e-11 -4.55491e-09 1.04306e-09 -3.31872e-11 -7.73091 5.47488 -0.417314 -4.55492e-09 1.04306e-09 -3.31935e-11 -2.90554 0.965183 -0.102902 -4.55492e-09 1.04306e-09 -3.31962e-11 -10.2786 0.731801 -0.0259123 -4.55492e-09 1.04307e-09 -3.32075e-11 -2.22167 -0.733487 0.20892 -2.03217e-16 0.0 -3.88251e-19 13.9536 -2.58302 6.1583 -0.0400003 11.3981 0.122453 -1.10098 -9.22208 -2.80551 2.03217e-16 0.0 3.88251e-19 18.4315 -37.0892 3.76477 0.0835581 20.0871 -0.0796502 1.2378 -0.499977 10.3412
